<svg width="266" height="266" viewBox="0 0 266 266" fill="none" xmlns="http://www.w3.org/2000/svg">
<rect x="0.0834961" y="0.0830078" width="265.833" height="265.833" rx="48.1608" fill="url(#paint0_linear_19_11)"/>
<path d="M169.815 83.6662C171.577 82.3445 173.23 81.6836 174.772 81.6836C176.534 81.6836 178.186 82.4546 179.728 83.9966L185.676 89.614C187.438 91.3763 188.319 92.9183 188.319 94.24C188.319 95.782 187.218 97.4342 185.015 99.1965C175.543 106.246 170.806 114.176 170.806 122.988C172.789 125.411 175.102 126.622 177.745 126.622H190.302C192.505 126.622 194.157 127.283 195.258 128.605C196.58 129.706 197.241 131.359 197.241 133.561V166.274C197.241 168.477 196.58 170.239 195.258 171.561C194.157 172.663 192.505 173.213 190.302 173.213H151.972C147.346 173.213 145.033 171.01 145.033 166.605C144.592 158.674 144.372 151.955 144.372 146.448C144.372 131.909 145.914 119.904 148.998 110.431C152.302 100.959 159.241 92.0371 169.815 83.6662ZM93.4853 83.9966C95.2476 82.6749 96.8997 82.014 98.4417 82.014C100.204 82.014 101.856 82.785 103.398 84.3271L109.346 89.9444C111.108 91.7067 111.989 93.2487 111.989 94.5704C111.989 96.1125 110.888 97.7646 108.685 99.5269C99.2128 106.576 94.4766 114.507 94.4766 123.318C96.4592 125.741 98.7722 126.953 101.416 126.953H113.972C116.175 126.953 117.827 127.614 118.929 128.935C120.25 130.037 120.911 131.689 120.911 133.892V166.605C120.911 168.808 120.25 170.57 118.929 171.892C117.827 172.993 116.175 173.544 113.972 173.544H75.6419C71.0159 173.544 68.7029 171.341 68.7029 166.935C68.2623 159.005 68.042 152.286 68.042 146.779C68.042 132.24 69.584 120.234 72.668 110.762C75.9724 101.289 82.9114 92.3676 93.4853 83.9966Z" fill="white"/>
<defs>
<linearGradient id="paint0_linear_19_11" x1="245.929" y1="10.3182" x2="0.0834976" y2="279.331" gradientUnits="userSpaceOnUse">
<stop stop-color="#7849FC"/>
<stop offset="1" stop-color="#35216C"/>
</linearGradient>
</defs>
</svg>
